<svg width="124" height="124" viewBox="0 0 124 124" fill="none" xmlns="http://www.w3.org/2000/svg">
<g id="circle-svgrepo-com 1">
<g id="inner-circle">
<path id="Vector" d="M62.0097 13.5392H59.6711L59.1286 13.5683H59.0705H58.8186H58.7605H58.7411C56.606 13.7097 54.4825 13.9926 52.3842 14.415L52.7717 16.3137C55.8155 15.7306 58.9097 15.4496 62.0097 15.4767V13.5392V13.5392ZM43.1442 17.3484C40.2903 18.5574 37.5584 20.0357 34.9874 21.7678L34.9719 21.7775H34.9583H34.9447H34.9312H34.9176H34.906H34.8944H34.8827H34.8711H34.8614H34.8518H34.8421H34.8324H34.8227H34.813L34.7839 21.7969L35.8786 23.3953C38.4361 21.6419 41.1622 20.15 44.0161 18.9391L43.2605 17.1546L43.1442 17.3484ZM27.2568 28.2197C25.0034 30.5369 22.9865 33.0731 21.2369 35.7895L22.8664 36.8396C24.5481 34.2317 26.4856 31.7963 28.6479 29.5721L27.2587 28.2158L27.2568 28.2197ZM16.8427 44.4036C16.2673 45.8781 15.7635 47.3874 15.3314 48.9316V48.9471V48.9587V48.9819V48.9955V49.0071V49.0168V49.0536V49.0652V49.0788V49.0904V49.1505V49.1621V49.1737V49.1854V49.1989V49.2144V49.228V49.2416V49.2551V49.2687V49.2842V49.2997V49.3152V49.3307V49.3462V49.3617V49.3772V49.3946V49.4101V49.4256V49.4431L15.3179 49.4973V49.5147C14.9633 50.8613 14.6649 52.2292 14.4247 53.6203L16.3351 53.9497C16.8117 50.933 17.5867 47.9706 18.6484 45.1069L16.8427 44.4036ZM15.5097 63.3156L13.5722 63.3698C13.6129 64.821 13.7156 66.2586 13.8822 67.6788V68.107V68.1244V68.1419V68.1593V68.1767V68.2484V68.2639V68.2814V68.2988V68.3162V68.3337V68.3511V68.3937V68.4112V68.4286V68.4461L13.8938 68.5391C14.0953 70.0367 14.3646 71.5112 14.7018 72.9624L16.5889 72.5264C15.9243 69.5001 15.5639 66.4136 15.5097 63.3156ZM19.6773 81.313L17.9161 82.119C18.0459 82.3961 18.1738 82.6712 18.3036 82.9444V82.9579V82.9715V82.9851V82.9986V83.0103V83.0199V83.0296V83.0412V83.0529V83.0645V83.0761V83.0897V83.1032C19.3324 85.2151 20.5123 87.2476 21.8356 89.187L21.8453 89.2025L21.855 89.2161L21.8647 89.2296V89.2432V89.2548V89.2684V89.2819V89.2955V89.3091L21.9364 89.4117V89.4234V89.435V89.4466V89.4563V89.466V89.4776V89.4892V89.5009V89.5125V89.5261V89.5396V89.5512V89.5648L21.9461 89.5803C22.1108 89.8167 22.2793 90.0511 22.4498 90.2856L24.0173 89.1463C22.1921 86.6373 20.6228 83.9519 19.3324 81.1309L19.6773 81.313ZM30.5428 96.2608L29.2311 97.6868L29.2873 97.7372L29.3415 97.7876C31.6898 99.9324 34.2434 101.843 36.9656 103.49L37.9692 101.831C35.3148 100.225 32.8251 98.3572 30.5408 96.2569L30.5428 96.2608ZM46.3547 105.82L45.7018 107.646C46.8894 108.07 48.0965 108.45 49.3249 108.781H49.3423L49.4683 108.816L49.5399 108.835H49.5574L49.6116 108.849H49.6271L49.7531 108.882H49.7686H49.8034H49.8209H49.8364H49.8713H49.8887H49.9216H49.9565L50.1503 108.932H50.1619H50.1735H50.1871H50.2006H50.2142H50.2277H50.2413H50.2549H50.4137H50.4273H50.4409H50.4544H50.468H50.4796H50.5416H50.5532H50.5668H50.6094H50.6211H50.6327H50.6462H50.6598H50.6753H50.6908H50.7044H50.7179H50.7315H50.7451H50.7586H50.7819H50.7954H50.809H50.8226H50.8381H50.8555H50.871H50.8865H50.902H50.9194H50.9369H50.9524H50.9679H50.9834H50.9989H51.0124H51.0279H51.0434H51.0589H51.0725H51.088H51.1035H51.119H51.1345H51.15H51.1655H51.181H51.1965H51.212H51.2275H51.243H51.2566H51.2721H51.2895H51.305H51.3224H51.3399H51.3573H51.3767H51.3941C51.7642 109.013 52.1381 109.091 52.5121 109.163H52.5489H52.5663H52.5837H52.6186H52.6341H52.6496H52.6651H52.6806H53.5719H53.5893H53.6087H53.6261H53.6436H53.661H53.6804C54.0679 109.227 54.4437 109.287 54.8293 109.341L55.1044 107.423C52.0335 106.983 49.0149 106.235 46.0931 105.193L46.3547 105.82ZM73.8187 107.012C70.8176 107.795 67.7447 108.277 64.6466 108.45L64.7551 110.387C65.0341 110.372 65.3131 110.354 65.5902 110.333H66.65C69.2366 110.087 71.7979 109.633 74.3109 108.977L73.8207 107.103L73.8187 107.012ZM90.3979 98.8629C87.9412 100.758 85.3004 102.403 82.5162 103.772L83.3706 105.516C83.8589 105.276 84.3432 105.028 84.8218 104.772H84.8354H84.8489H84.8606H84.8702H84.8799H84.8896H84.8993H84.9109H84.9226H84.9361H84.9497H84.9652L85.1318 104.681H85.1473H85.1628H85.1783H85.1938H85.2074H85.2209H85.2345H85.2481H85.2616H85.2771H85.2926H85.3081H85.3236C86.335 104.119 87.3231 103.523 88.288 102.891L88.3035 102.881H88.3171L88.3326 102.872H88.3461H88.3597H88.3732H88.3868H88.4004H88.412H88.4236H88.4352H88.4469H88.4604H88.474H88.4876H88.5011L88.5166 102.862L88.5321 102.852L88.6251 102.79H88.6348H88.6464H88.6561H88.6658H88.6755H88.6852H88.6987C89.5106 102.238 90.3049 101.664 91.0799 101.066L89.8961 99.5313L90.3979 98.8629ZM102.515 84.9129C100.984 87.6118 99.1884 90.1519 97.154 92.4943L98.6168 93.7653C99.6766 92.5466 100.672 91.2756 101.608 89.9523V89.9407V89.9291V89.9174V89.9058V89.8942V89.8826V89.8709V89.8593V89.8496V89.8399V89.8302V89.8186V89.807V89.7954V89.7857L101.618 89.7702L101.628 89.7547V89.7431V89.7295V89.7179V89.7062V89.6946V89.683V89.6714V89.6617V89.6501V89.6384V89.6268V89.6152V89.6036V89.59L101.637 89.5745V89.5609L101.649 89.5454C102.43 88.4062 103.164 87.234 103.848 86.0269L102.162 85.0717L102.515 84.9129ZM108.235 67.3494C107.882 70.4301 107.221 73.47 106.262 76.4189L108.105 77.0195C108.583 75.5528 108.99 74.0551 109.329 72.5284V72.4916V72.4567V72.4392V72.4237V72.4083V72.3947V72.3772V72.3617V72.3443V72.3307V72.3153V72.3017V72.1486V72.1331V72.0983C109.641 70.6238 109.883 69.1281 110.058 67.6071L108.132 67.3862L108.235 67.3494ZM108.537 48.3891L106.677 48.9316C107.545 51.9095 108.112 54.9669 108.372 58.0591L110.31 57.8964C110.04 54.6762 109.447 51.4891 108.543 48.3871L108.537 48.3891ZM99.5623 31.3642L98.0627 32.5907C100.025 34.9932 101.744 37.5875 103.193 40.331L104.908 39.4262C103.399 36.5684 101.61 33.8675 99.5623 31.3642ZM84.6784 19.1561L83.7717 20.8688C86.5132 22.3239 89.1017 24.0463 91.5004 26.0148L92.7287 24.5171C90.2313 22.4672 87.5343 20.6712 84.6784 19.1561ZM66.2141 13.7194L66.0474 15.6569C69.1377 15.9224 72.1951 16.4978 75.1711 17.3716L75.7175 15.5C74.7158 15.2074 73.6986 14.9459 72.6659 14.7134H72.6291H72.5923L72.5206 14.6979H72.5032H72.4857H72.4683H72.4528H72.4373H72.4218H72.4063H72.3908H72.3753H72.3598H72.3443H72.3288H72.3133H72.2978H72.2804H72.2649H72.2494H72.2339H72.2184H72.2029H72.1893H72.1738H72.0847H72.0692H70.8912H70.8757H70.8582H70.8427H70.8272H70.8098H70.7924H70.7749H70.7575H70.7207C69.2424 14.4305 67.7427 14.2309 66.2218 14.0992L66.2141 13.7194Z" fill="#D64394"/>
</g>
<g id="outer-circle">
<path id="Vector_2" d="M62.0093 0H58.394H58.33H57.9018H57.836H57.7682H57.7003H57.6577H57.6267H57.5841H57.5531H57.5105H57.4814H57.4349H57.3632H57.2935H57.2237H57.152H57.0803L56.8866 0.0155H56.8149H56.7432H56.6696C55.232 0.145313 53.8118 0.315812 52.4071 0.530875L53.0058 4.35938C55.9895 3.968 59.0004 3.80525 62.0093 3.875V0ZM42.9443 2.98569C39.8695 3.97575 36.878 5.208 33.997 6.66694L35.7407 10.1234C38.4416 8.75362 41.2452 7.59887 44.1262 6.66694L42.9366 2.98569H42.9443ZM25.7355 11.7044C23.116 13.5993 20.6495 15.6957 18.3555 17.9742L21.0835 20.7254C23.2361 18.5922 25.5495 16.6296 28.0043 14.8548L25.7355 11.7141C25.7355 11.7141 25.7355 11.7044 25.7355 11.7044ZM12.0315 25.3018C11.5142 26.0109 11.0085 26.7317 10.5106 27.4621L10.4486 27.5551L10.4079 27.6171L10.3866 27.6481L10.3459 27.7082L10.3265 27.7372L10.3072 27.7663L10.2878 27.7954L10.249 27.8535L10.2297 27.8826L10.2103 27.9116L10.1909 27.9407L10.1715 27.9697L10.1541 27.9969L10.1367 28.024L10.1192 28.0511L10.0998 28.0802L10.0824 28.1073L10.065 28.1325L10.0475 28.1596L10.0301 28.1868L10.0127 28.2119L9.99521 28.2391L9.97971 28.2643L9.96228 28.2914L9.94484 28.3185L9.92934 28.3418L9.9119 28.3689L9.89446 28.396L9.87703 28.4212L9.85959 28.4483L9.84409 28.4735L9.82665 28.5006L9.80921 28.5277L9.79565 28.551L9.78015 28.5762L9.76659 28.5975L9.75303 28.6208V28.6304L9.73753 28.6556L9.72396 28.6769L9.70846 28.7021L9.69296 28.7254L9.6794 28.7467L9.6639 28.7719L9.65034 28.7912L9.63484 28.8145V28.8242L9.61934 28.8494L9.60771 28.8687L9.59221 28.8939L9.57865 28.9152V28.9269L9.56703 28.9462V28.9559L9.55153 28.9811V28.9908L9.5399 29.0083V29.0199L9.52634 29.0412V29.0528L9.30934 29.3338V29.3434L9.29771 29.3609V29.3706L9.28221 29.3957V29.4074L9.27059 29.4248V29.4403L9.25896 29.4597V29.4713L9.24346 29.4946V29.5042L9.23184 29.5236L9.21634 29.5488V29.5604L9.20278 29.5817V29.5934L9.19115 29.6128V29.6224L9.17565 29.6457V29.6554L9.16403 29.6747V29.6864L9.15046 29.7077V29.7193L9.13496 29.7426V29.7542L9.12334 29.7716V29.7813L9.10784 29.8046V29.8162L9.09428 29.8394L9.08071 29.8607V29.8704L9.06521 29.8956V29.9053L9.05359 29.9247V29.9382L9.04003 29.9596V29.9712L9.02453 29.9964V30.0061L9.01484 30.0235V30.0351L9.00128 30.0584V30.07L8.98965 30.0894V30.1029L8.97803 30.1223V30.1339L8.96253 30.1591V30.1688L8.9509 30.1862V30.1979L8.93734 30.2211V30.2328L8.92571 30.2521V30.2676L8.91603 30.2851V30.2967L8.90246 30.3199V30.3335V30.349V30.3645L8.89084 30.3839V30.3955L8.87728 30.4207V30.4304L8.86565 30.4478V30.4575L8.85015 30.4827V30.4924L8.83659 30.5137V30.5272L8.82496 30.5466V30.5583L8.8114 30.5815V30.5931L8.80171 30.6106V30.6241L8.78815 30.6454V30.6571L8.77459 30.6823V30.6939L8.7649 30.7113V30.7229L8.75134 30.7462V30.7578L8.73971 30.7772V30.7908L8.72809 30.8101V30.8217L8.71453 30.845V30.8566L8.70484 30.8741V30.8857L8.69128 30.9089V30.9206L8.67771 30.9419V30.9535L8.66609 30.9729V30.9826L8.65253 31.0077V31.0174L8.6409 31.0388V31.0504L8.62734 31.0717V31.0833L8.61378 31.1085V31.1182L8.60215 31.1376L8.58859 31.1627V31.1724L8.57503 31.1957L8.5634 31.217V31.2286L8.54984 31.2538V31.2635L8.53821 31.2848V31.2945L8.52465 31.3177V31.3294L8.51109 31.3546V31.3642L8.5014 31.3836V31.3933L8.48784 31.4185V31.4282L8.47428 31.4514V31.4611L8.46265 31.4824V31.4941L8.44909 31.5192V31.5289L8.43746 31.5483L8.4239 31.5735V31.5832L8.41034 31.6084V31.6181L8.39871 31.6374V31.6471L8.38515 31.6723L8.37159 31.6956L8.35803 31.7207L8.34253 31.7479L8.3309 31.7711L8.3154 31.7983L8.30184 31.8234L8.29021 31.8467L7.75934 31.9688L7.74578 31.992L7.73028 32.0191L7.71478 32.0463L7.70121 32.0714L7.68571 32.1005L7.67021 32.1276L7.65665 32.1528L7.64115 32.1799L7.62565 32.2071L7.61015 32.2361L7.59465 32.2652L7.58109 32.2923L7.56559 32.3214L7.53265 32.3814L7.51715 32.4105L7.50165 32.4396L7.48615 32.4706L7.45321 32.5326L7.43771 32.5636L7.42221 32.5946L7.40478 32.6256L7.38734 32.6566L7.3699 32.6876L7.3544 32.7186L7.32146 32.7806L7.30596 32.8116L7.29046 32.8426L7.27303 32.8736L7.25559 32.9046L7.23815 32.9356L7.22071 32.9685L7.18584 33.0324L7.1684 33.0654L7.15096 33.0983L7.13353 33.1313L7.09865 33.1971L7.08121 33.2301L7.04634 33.2959L7.01146 33.3618L10.4525 35.1443C11.8455 32.4551 13.4478 29.8782 15.242 27.4389L12.0315 25.3018ZM3.15971 42.4312C2.8439 43.3787 2.55134 44.3378 2.28203 45.3065L2.26265 45.3782L2.24328 45.4499L2.21421 45.5584L2.19484 45.6301L2.17546 45.6998V45.7347V45.7696V45.8044L2.15803 45.8723V45.9052V45.9362V45.9691V46.0001V46.0331V46.0641V46.0951V46.1261V46.1532V46.1842V46.2113V46.2423V46.2733V46.3004V46.3295V46.3527V46.3624V46.3915V46.4012V46.4264V46.4554V46.4671V46.4923V46.5058V46.5271V46.5407V46.5678V46.5794V46.6008V46.6124V46.6395V46.6531V46.6744V46.6899V46.7112V46.7247V46.748V46.7635V46.7809V46.7964V46.8216V46.8371V46.8546V46.8739V46.8933V46.9088V46.9224V46.9495V46.965V46.9805V46.9979V47.0231V47.0386V47.0541V47.0793V47.0968V47.1103V47.1316V47.151V47.1684V47.1839V47.2091V47.2246V47.2421V47.2556V47.2827V47.2963V47.3138V47.3389V47.3564V47.368V47.3971V47.4106V47.4281V47.4397V47.4688V47.4804V47.4978V47.5114V47.5404V47.5521V47.5831V47.5927V47.6121V47.6237V47.6548V47.6644V47.6838V47.6954V47.7264V47.8563V47.8756V47.9163V47.9531V47.9725V47.9841V48.0151V48.05V48.0694V48.1042L1.55934 48.1818V48.2224V48.2437V48.2806V48.3019V48.3387V48.3484L1.49734 48.4375V48.4472V48.4821V48.5014V48.5344V48.5441V48.5634V48.5964V48.6313L1.48378 48.6932V48.7029V48.7339V48.7456V48.7649V48.7766V48.8095V48.8289V48.8657V48.8773V48.9083V48.9199V48.9393V48.9509V48.9819V49.0187V49.0381V49.0497V49.0788V49.0904V49.1079V49.1273V49.1505V49.1641V49.1893V49.2047V49.2222V49.2358V49.2629V49.2764V49.2939V49.3094V49.3346V49.3501V49.3675V49.3927V49.4101V49.4256V49.4489V49.4663V49.4818V49.5012V49.5206V49.5419V49.5554V49.5806V49.5961V49.6155V49.6291V49.6562V49.6697V49.6911V49.7027V49.7317V49.7453V49.7686V49.7821V49.8054V49.817V49.8461V49.8577V49.8809V49.8906V49.9197V49.9294V49.9526V49.9817V49.9875V50.0166V50.0417V50.0727V50.1018V50.1347V50.1658V50.2006V50.2355V50.2684V50.3033V50.3401V50.3769L1.47021 50.4486C1.38884 50.8846 1.31134 51.3244 1.23771 51.7642L5.0604 52.3958C5.55446 49.4082 6.28103 46.4651 7.23428 43.5918L3.55303 42.3693L3.15971 42.4312ZM0.00933838 61.473V61.5369V61.8198V62V62.3972V65.7394V65.8033V66.0319V66.0687V66.1327V66.3904V66.4543V66.5183V66.6268V66.6655V66.7004V66.7411V66.7721V66.8341V66.8689V66.9077V67.0917V67.1537V67.1886V67.2254V67.6575V67.6904V68.5274V68.5565V68.5991V68.6282V68.6708V68.6979V68.7251V68.7812V68.8103V68.8529V68.882V68.9227V68.9537V68.9808V69.0137V69.0448V69.1106V69.1416V69.1746V69.2056V69.2734V69.3412V69.409C0.0771509 69.9728 0.150776 70.5328 0.234088 71.0908L4.0684 70.525C3.80103 67.6924 3.73903 64.8423 3.88434 62V61.5059L0.00933838 61.473ZM6.53096 79.4046L2.83421 80.5671C2.98728 81.0514 3.14421 81.5339 3.30696 82.0144L3.40578 82.3011C3.48909 82.5394 3.5724 82.7778 3.65765 83.0161C4.45978 85.2442 5.38978 87.4239 6.44378 89.5435L9.91384 87.8191C8.56728 85.1086 7.43578 82.2953 6.53096 79.4046ZM14.5735 95.604L11.4173 97.8438C13.2793 100.467 15.3427 102.943 17.5883 105.249L17.6135 105.276L20.388 102.564C18.2722 100.392 16.3289 98.0607 14.5755 95.5885L14.5735 95.604ZM27.208 108.562L24.883 111.662C26.834 113.123 28.8703 114.467 30.9803 115.69L31.081 115.748L31.1392 115.781L31.174 115.801L31.2302 115.833L31.2651 115.853L31.2845 115.864L31.3155 115.882L31.3445 115.899H31.362L31.391 115.915H31.4085H31.422L31.4453 115.928H31.4569L31.4821 115.942H31.4957H31.5112H31.5228L31.546 115.955H31.5596H31.5732L31.5964 115.969H31.61H31.6255L31.6448 115.979H31.6603H31.6739L31.6972 115.992H31.7088H31.7262H31.7378L31.763 116.006H31.7747L31.794 116.018H31.8095L31.827 116.027H31.8386L31.8638 116.041H31.8754L31.8948 116.05H31.9083L31.9297 116.062H31.9432L31.9665 116.076H31.9762L31.9955 116.087L32.0207 116.101L32.0459 116.114L32.0692 116.128L32.0963 116.143L32.1195 116.157L32.1467 116.172L32.1738 116.188L32.199 116.202L32.228 116.217L32.2571 116.233L32.2881 116.25L32.3191 116.267L32.3501 116.285L32.3811 116.302L32.4121 116.32L32.4431 116.337L32.4741 116.355L32.538 116.389L32.571 116.407L32.6039 116.424L32.6368 116.442L32.7008 116.477L32.7337 116.494L32.7996 116.529L32.8984 116.581L34.8843 113.417C32.2067 112.001 29.6453 110.377 27.2196 108.562H27.208ZM43.2001 117.025L41.9465 120.693C44.3645 121.518 46.8329 122.194 49.3342 122.713L49.4078 122.729L49.4815 122.745H49.5183L49.588 122.758L49.6558 122.772H49.6888H49.7198H49.7527H49.7837H49.8167H49.8496H49.8767H49.9077H49.9174H49.9426H49.9717H49.9833H50.0085H50.0201H50.0433H50.0569H50.084H50.0957H50.115H50.1906H50.2177H50.2313H50.2507H50.2681H50.2913H50.3049H50.3243H50.3475H50.365H50.3805H50.3998H50.4212H50.4347H50.4541H50.4754H50.4948H50.5064H50.5413H50.5626H50.5994L50.6653 122.783L50.735 122.797H50.7815L50.8532 122.81L51.2853 122.886L51.9479 119.069C48.9835 118.616 46.0579 117.932 43.2001 117.025ZM70.0848 119.579C67.4092 119.945 64.7102 120.129 62.0093 120.125C61.68 120.125 61.3506 120.125 61.0212 120.125L60.9573 124H61.1878H66.6283H66.6903H66.8977H66.9597H66.9965H67.0604H67.165H67.229H67.2638H67.3297H67.3646H67.4285H67.5254H67.6262H67.692L67.8858 123.981C68.7983 123.893 69.7032 123.789 70.5983 123.663L70.0655 119.825L70.0848 119.579ZM87.3906 114.312C84.6684 115.636 81.8455 116.742 78.9489 117.624L80.0765 121.332C83.1668 120.392 86.1797 119.21 89.0859 117.798L87.3906 114.312ZM102.234 103.966C100.046 106.063 97.7 107.987 95.2142 109.721L97.4307 112.9L97.4482 112.888H97.4578L97.4811 112.873H97.4927L97.5102 112.859H97.5237L97.5412 112.848H97.5528L97.576 112.832H97.5857L97.6012 112.821L97.6167 112.811L97.6342 112.799H97.6477L97.6632 112.788L97.6826 112.774H97.6942H97.7078L97.7291 112.759H97.7427L97.7562 112.749L97.7756 112.735H97.7872L97.8027 112.726L97.8221 112.712L97.8357 112.702H97.8473L97.8686 112.687H97.8822L97.8957 112.677H97.9073L97.9306 112.66L97.9577 112.64L97.9732 112.629L98.0003 112.609L98.0158 112.598L98.0507 112.573L98.0817 112.551L98.0992 112.538L98.1321 112.514L98.1844 112.476L98.2154 112.453L98.2697 112.414L98.4343 112.181L98.4905 112.141L98.5273 112.113L98.5835 112.073C99.3798 111.49 100.161 110.891 100.926 110.273L101.015 110.201L101.158 110.085L101.3 109.969L101.387 109.897L101.439 109.854L101.468 109.831L101.521 109.788L101.554 109.761L101.571 109.748L101.602 109.721L101.635 109.694L101.653 109.68L101.684 109.655L101.734 109.612L101.763 109.587L101.813 109.544L101.844 109.519L101.86 109.506L101.887 109.482L101.935 109.442L101.959 109.422L101.974 109.411L101.999 109.389L102.116 109.275L102.131 109.261L102.154 109.24L102.201 109.199L102.224 109.18L102.238 109.168L102.251 109.157L102.271 109.141H102.28L102.302 109.124L102.313 109.114L102.327 109.103L102.338 109.093L102.358 109.075H102.369L102.381 109.064L102.4 109.048L102.414 109.037L102.426 109.027L102.443 109.011L102.457 109L102.468 108.99L102.488 108.975L102.499 108.965L102.513 108.953L102.526 108.942L102.544 108.926H102.555L102.571 108.913L102.586 108.899L102.6 108.888H102.612L102.631 108.87L102.643 108.858L102.697 108.783L102.712 108.769L102.728 108.756L102.739 108.746L102.759 108.729H102.77L102.784 108.717L102.798 108.705L102.815 108.69H102.825L102.842 108.674L102.856 108.663L102.871 108.649H102.881L102.9 108.632L102.912 108.622L102.925 108.61L102.939 108.599L102.955 108.585H102.964L102.986 108.568L103.013 108.5H103.022L103.042 108.483H103.051L103.071 108.465L103.086 108.452L103.108 108.434H103.117L103.135 108.419H103.144L103.162 108.403L103.183 108.384L103.201 108.368L103.222 108.349L103.243 108.329L103.261 108.314L103.282 108.295L103.301 108.277L103.323 108.258L103.346 108.238L103.365 108.221L103.389 108.2L103.412 108.178L103.431 108.161L103.454 108.142L103.476 108.122L103.497 108.103L103.666 107.919L103.689 107.897L103.714 107.876L103.737 107.855L103.759 107.835L103.782 107.814L103.805 107.793L103.828 107.772L103.852 107.75L103.873 107.731L103.896 107.709L103.919 107.688L103.941 107.669L103.964 107.648L103.987 107.626L104.009 107.605L104.032 107.584L104.055 107.562L104.08 107.539L104.105 107.516L104.129 107.494L104.152 107.471L104.177 107.448L104.2 107.427L104.224 107.405L104.247 107.384L104.272 107.361L104.295 107.338L104.317 107.316L104.34 107.295L104.363 107.272L104.386 107.248L104.412 107.225L104.437 107.202L104.462 107.179L104.634 107.022L104.658 106.998L104.683 106.975L104.733 106.929L104.758 106.905L104.784 106.882L104.809 106.859L104.832 106.836L104.853 106.814L104.877 106.791L102.197 103.993L102.234 103.966ZM113.198 89.5726C111.759 92.2386 110.114 94.7864 108.279 97.1966L111.361 99.5449C112.055 98.6401 112.723 97.7101 113.367 96.7549L113.431 96.6619L113.471 96.6018L113.491 96.5728L113.51 96.5437L113.529 96.5146L113.549 96.4875L113.566 96.4623L113.584 96.4352L113.601 96.41L113.619 96.3848L113.636 96.3596L113.65 96.3383L113.665 96.3151V96.3034L113.679 96.2821V96.2705L113.69 96.2531V96.2414L113.706 96.2182V96.2066L113.715 96.1911L113.727 96.1717V96.1581V96.1446L113.739 96.1271L113.75 96.1097V96.0961L113.764 96.0748V96.0613L113.774 96.0457V96.0361L113.791 96.0109L113.826 95.9586L113.845 95.9276L113.882 95.8714L113.919 95.8132C114.831 94.4105 115.686 92.9709 116.484 91.4926L113.074 89.652L113.198 89.5726ZM119.191 72.5226C118.646 75.5005 117.869 78.4319 116.866 81.2878L120.522 82.5724C120.683 82.1171 120.838 81.6598 120.987 81.1987L121.008 81.1328L121.029 81.0669L121.043 81.0224V81.0011L121.055 80.9642L121.074 80.9023L121.084 80.8693V80.8519V80.8402V80.8112V80.7996V80.7821V80.7705V80.7434V80.7298V80.7143V80.6891V80.6736V80.6581V80.6368V80.6194V80.6039V80.5845V80.5671V80.5477V80.5341V80.507V80.4954V80.4741V80.4624V80.4353V80.4237V80.4024V80.3908V80.3636V80.352V80.3268V80.3132V80.2919V80.2803V80.2532V80.2416V80.2183V80.1893V80.1796V80.1524V80.1234V80.0924V80.0653V80.0342V80.0071V79.9761V79.9451V79.9141L121.093 79.8812V79.8502L121.103 79.8172L121.122 79.7514L121.142 79.6836L121.152 79.6487L121.161 79.6138L121.522 79.4375L121.541 79.3678L121.572 79.2612L121.593 79.1895L121.615 79.1178C121.93 78.0173 122.215 76.9052 122.471 75.7814L122.488 75.7078L122.504 75.6361V75.6013V75.5664V75.5315L122.519 75.4618V75.4269V75.3939V75.361V75.33V75.2971V75.2641V75.2331V75.2021V75.175V75.144V75.1169V75.0898V75.0762V75.0471V75.0374V75.0161V74.9231V74.896V74.8824V74.8631V74.8495V74.8243V74.8107V74.7914V74.7701V74.7526V74.7371V74.7197V74.6964V74.6809V74.6635V74.6383V74.6209V74.6073V74.5763V74.5647V74.5453V74.5356V74.5027V74.493L122.533 74.4291L122.547 74.3613V74.3167C122.62 73.9524 122.69 73.5843 122.758 73.2162L118.947 72.5206L119.191 72.5226ZM123.49 53.9226L119.648 54.4224C119.974 56.9354 120.134 59.4658 120.134 62C120.134 62.4941 120.129 62.9881 120.115 63.4802L123.99 63.5771C123.99 63.4279 123.99 63.2768 123.99 63.1257V62.6917V62.6704V62.6491V62.6278V62.0465V62V60.2001V60.1555V60.0024V59.9094V59.8687V59.7951V59.7719V59.6731V59.6479V59.5491C123.916 57.6445 123.757 55.7632 123.515 53.9071L123.49 53.9226ZM118.034 35.4156L114.535 37.0799C115.833 39.8079 116.914 42.6347 117.771 45.5312L121.487 44.4366C120.574 41.3385 119.417 38.316 118.03 35.3981L118.034 35.4156ZM107.136 19.4913L104.317 22.1495C106.396 24.3544 108.298 26.7181 110.011 29.2175L113.208 27.0281C112.95 26.6406 112.685 26.2628 112.413 25.8947L112.346 25.7997L112.307 25.7455L112.28 25.7087L112.266 25.6893L112.241 25.6544L112.191 25.575L112.169 25.5459L112.132 25.4956L112.115 25.4723V25.4626L112.105 25.4471V25.4355L112.09 25.4142V25.4026V25.389L112.074 25.3677V25.3541V25.3406L112.061 25.3212V25.3076L112.051 25.2941L112.036 25.2727V25.2611L112.024 25.2476L112.014 25.234L112.001 25.2146V25.2049L111.985 25.1856V25.172L111.974 25.1565V25.1468L111.958 25.1255V25.1139L111.945 25.0964L111.935 25.0829L111.921 25.0654V25.0558L111.904 25.0325L111.888 25.0131L111.871 24.9879L111.853 24.9647L111.838 24.9434L111.819 24.9182L111.799 24.8911L111.609 24.8L111.59 24.7748L111.573 24.7496L111.551 24.7225L111.532 24.6954L111.512 24.6702L111.491 24.6431L111.449 24.5869L111.416 24.5287L111.373 24.4726L111.352 24.4435L111.328 24.4144L111.307 24.3854L111.263 24.3272L111.193 24.2381L111.123 24.149L111.077 24.0889C110.431 23.25 109.761 22.4304 109.067 21.6264L109.019 21.5702L108.955 21.5063L108.932 21.4791L108.885 21.4249L108.862 21.3977L108.839 21.3706L108.815 21.3454L108.794 21.3202L108.775 21.297L108.753 21.2737L108.703 21.2156L108.684 21.1924L108.664 21.1691L108.647 21.1498L108.628 21.1265L108.608 21.1052L108.593 21.0877L108.573 21.0664L108.509 20.9928V20.9812L108.494 20.9637V20.9541L108.476 20.9327V20.9231L108.465 20.9095L108.453 20.8959L108.44 20.8804L108.43 20.8688L108.414 20.8533L108.401 20.8378L108.391 20.8262L108.376 20.8068L108.364 20.7933L108.352 20.7797V20.77L108.333 20.7487L108.277 20.7312L108.254 20.7041L108.23 20.677L108.217 20.6615L108.188 20.6286L108.143 20.5782L108.112 20.5453C107.796 20.1946 107.477 19.8478 107.153 19.5048L107.136 19.4913ZM91.8837 7.6725L90.0101 11.0437C92.6625 12.5066 95.1968 14.1728 97.5915 16.0289L99.9669 12.9812L99.9417 12.9619L99.8913 12.9231L99.8642 12.9018L99.8487 12.8902L99.8216 12.8689L99.7906 12.8456L99.7189 12.7875L99.6898 12.7662L99.6375 12.7274L99.5968 12.6829L99.5426 12.6422L99.4767 12.5938L99.4418 12.5666L99.3876 12.5259L99.2965 12.4562C98.6649 11.9796 98.0236 11.5146 97.3726 11.0631L97.2718 10.9973L97.0219 10.8248L96.9638 10.7861L96.925 10.7609L96.8688 10.7221L96.832 10.6969L96.8127 10.6834L96.7739 10.6562L96.7197 10.6194L96.6906 10.6001L96.6732 10.5884L96.6402 10.5671L96.6053 10.5439L96.5879 10.5322L96.5569 10.5109L96.5027 10.4741L96.4717 10.4528L96.4542 10.4412L96.4252 10.4218L96.398 10.4024L96.3031 10.3424L96.2721 10.323L96.2198 10.2881L96.1907 10.2688L96.1733 10.2571L96.1093 10.2164L96.0783 10.1951L96.0628 10.1854L96.0357 10.168L96.0202 10.1583H96.0086L95.9853 10.1428H95.9757L95.9156 10.0905H95.9059L95.9001 10.075H95.8885L95.8652 10.0595H95.8536L95.8342 10.0459L95.8187 10.0362H95.8032H95.7916L95.7683 10.0207H95.7567H95.7432L95.7218 9.95875H95.7083H95.6947L95.6773 9.94712L95.6598 9.9355H95.6463H95.6327L95.6133 9.92194H95.5998H95.5862L95.5649 9.90837H95.5513H95.5378L95.5165 9.89481H95.501H95.4874L95.468 9.88125H95.4545L95.439 9.87156H95.4273L95.4041 9.85606H95.3925L95.375 9.84444L95.3595 9.83475L95.3343 9.71269H95.3227L95.3072 9.6875H95.2956L95.2801 9.67781L95.2646 9.66812L95.2452 9.6565H95.2336L95.2123 9.64294H95.1987L95.1813 9.63131H95.1697L95.1406 9.59062H95.129L95.1096 9.579H95.096L95.0767 9.56738H95.065L95.0418 9.55187H95.0302L95.0147 9.54219L95.0069 9.49375H94.9895H94.9778L94.9468 9.46856H94.9352L94.9178 9.45694H94.9062L94.8829 9.44144H94.8713L94.8519 9.42981H94.8403L94.8209 9.41819H94.8093L94.7841 9.40269L94.7647 9.39106L94.7415 9.37556H94.7318L94.6969 9.3L94.6756 9.28644L94.6504 9.27094H94.6407L94.6213 9.25931H94.6097L94.5884 9.24575H94.5787L94.5535 9.23025L94.5342 9.21862H94.5245L94.4993 9.20312L94.4741 9.18763L94.4528 9.17406L94.3753 9.10625L94.354 9.09269L94.3268 9.07719L94.3017 9.06169L94.2803 9.04813L94.2552 9.03263L94.1718 8.98806L94.1467 8.97256L94.1195 8.95706L94.0963 8.9435L94.0537 8.9125L94.0265 8.897L94.0052 8.88344L93.98 8.86794L93.9548 8.85244L93.9297 8.83694L93.9025 8.82144L93.8793 8.80788L93.7843 8.75556L93.7572 8.74006L93.7301 8.71875L93.7049 8.70325L93.6817 8.68969L93.6565 8.67419L93.5906 8.63738L93.5654 8.62187L93.5383 8.60637L93.5112 8.59088L93.4879 8.57731L93.4608 8.56181L93.3968 8.525L93.3697 8.5095L93.3426 8.494L93.3193 8.48044L93.2922 8.46494L93.2651 8.44944L93.2031 8.40875L93.176 8.39325L93.1527 8.37969L93.1062 8.35062L93.0713 8.33125L93.0481 8.31769L93.0093 8.29444L92.9861 8.28088L92.9628 8.26731L92.9377 8.25181L92.9144 8.23825L92.8873 8.22275L92.8156 8.17819L92.7943 8.16656L92.7458 8.1375H92.7362L92.7129 8.12394L92.6897 8.11037H92.678L92.6528 8.09681L92.6218 8.06775L92.5967 8.05225L92.5695 8.03675L92.5482 8.02513H92.5385L92.5133 8.01156H92.5017L92.4823 7.99994H92.4688L92.4494 7.98831H92.4378L92.3816 7.94375H92.3719L92.3545 7.93406H92.3428L92.3177 7.9205H92.306L92.2867 7.90887H92.2712L92.2537 7.89919H92.2421L92.2169 7.88563H92.2053L92.1859 7.87594H92.1704L92.151 7.86625H92.1375L92.1142 7.85269H92.1007H92.0852H92.0716L92.0522 7.75H92.0406H92.0251L92.0038 7.73837H91.9902H91.9767L91.9534 7.72675H91.9379H91.9243L91.903 7.71513H91.8875L91.8837 7.6725ZM73.7312 1.10631L73.0027 4.91156C75.9768 5.48119 78.9005 6.28331 81.7486 7.31019L83.0642 3.66575C81.3727 3.05544 79.6464 2.51681 77.8872 2.05181L77.7031 2.00338L77.6314 1.984L77.5229 1.95494L77.4473 1.9375L77.3757 1.91813H77.3427H77.3117H77.2788L77.1916 1.87163H77.1587H77.1277H77.0947H77.0637H77.0327H77.0017H76.9707H76.9378H76.9107H76.8797H76.8506H76.8196H76.7886H76.7634H76.7324H76.7072H76.6762H76.6665H76.6375H76.6123H76.6007H76.5716H76.4437H76.4205H76.4088H76.3798H76.3701L76.3468 1.66625H76.3372H76.31H76.2984H76.2713H76.2597H76.2383H76.2267H76.1977H76.186H76.1647H76.1531H76.126H76.1124H76.0892H76.0756H76.0523H76.0407H76.0117H76.002H75.9807H75.9593H75.9303H75.9186H75.8973H75.8838H75.8586H75.847H75.8218H75.8082H75.7869H75.7733H75.7462H75.7346H75.7133H75.7075H75.6784H75.6668H75.6435H75.63H75.6048H75.5912L75.5718 1.48606H75.5525H75.5331H75.5195H75.4924H75.4788H75.4595H75.4459H75.4207H75.4071H75.3839H75.3684H75.3471H75.3335H75.3045H75.2928H75.2715H75.2618H75.2328H75.2192H75.1979H75.1824H75.1592H75.1456H75.1165H75.1068H75.0855H75.0739H75.0448H75.0332H75.0119H74.9906L74.9712 1.35625H74.9596H74.9363H74.9208H74.8995H74.8879H74.8588H74.8472H74.824H74.8143H74.7852H74.7736H74.7503H74.7213H74.7H74.669H74.6438H74.6341L74.6031 1.27875H74.5779H74.5469H74.5159H74.4868H74.4772L74.4093 1.24H74.3842H74.3532H74.3435H74.3163H74.2853L74.2156 1.20125H74.1865H74.1555H74.1265H74.0935H74.0625H74.0296H73.9967H73.9657H73.9327H73.9017H73.8688L73.7351 1.10631H73.7312V1.10631ZM62.0093 0V3.875C62.67 3.875 63.3288 3.88662 63.9836 3.90794L64.1135 0.0329375C63.6795 0.0213125 63.2474 0.0096875 62.8134 0H62.0093Z" fill="#F7B239"/>
</g>
<g id="left-circle">
<path id="Vector_3" d="M37 61.5C37 75.0309 47.9691 86 61.5 86V37C47.9691 37 37 47.9691 37 61.5Z" fill="#FF7956"/>
</g>
<g id="right-circle">
<path id="Vector_4" d="M61.5 37V86C75.0309 86 86 75.0309 86 61.5C86 47.9691 75.0309 37 61.5 37Z" fill="#FF5023"/>
</g>
</g>
</svg>
